<mxfile host="app.diagrams.net" modified="2022-10-20T09:17:47.684Z" agent="5.0 (Windows NT 10.0; Win64; x64) AppleWebKit/537.36 (KHTML, like Gecko) Chrome/87.0.4280.88 Safari/537.36" etag="77yrkYbXM2pehYATtgpD" version="20.4.1" type="github">
  <diagram id="-kKotpdd64dqmNGhhJiw" name="Страница 1">
    <mxGraphModel dx="1422" dy="794" grid="1" gridSize="10" guides="1" tooltips="1" connect="1" arrows="1" fold="1" page="1" pageScale="1" pageWidth="1169" pageHeight="1654" math="0" shadow="0">
      <root>
        <mxCell id="0" />
        <mxCell id="1" parent="0" />
        <mxCell id="YBYCJPzU8zMPJ0krrIQY-1" value="" style="edgeStyle=orthogonalEdgeStyle;rounded=0;orthogonalLoop=1;jettySize=auto;html=1;fontSize=18;fontColor=#0000FF;" edge="1" parent="1" source="YBYCJPzU8zMPJ0krrIQY-2" target="YBYCJPzU8zMPJ0krrIQY-4">
          <mxGeometry relative="1" as="geometry" />
        </mxCell>
        <mxCell id="YBYCJPzU8zMPJ0krrIQY-2" value="&quot;Старт&quot;&lt;br&gt;Начало" style="ellipse;whiteSpace=wrap;html=1;" vertex="1" parent="1">
          <mxGeometry x="50" y="40" width="120" height="80" as="geometry" />
        </mxCell>
        <mxCell id="YBYCJPzU8zMPJ0krrIQY-3" value="" style="edgeStyle=orthogonalEdgeStyle;rounded=0;orthogonalLoop=1;jettySize=auto;html=1;fontSize=18;fontColor=#0000FF;" edge="1" parent="1" source="YBYCJPzU8zMPJ0krrIQY-4" target="YBYCJPzU8zMPJ0krrIQY-9">
          <mxGeometry relative="1" as="geometry" />
        </mxCell>
        <mxCell id="YBYCJPzU8zMPJ0krrIQY-4" value="Запустить InfBase" style="whiteSpace=wrap;html=1;" vertex="1" parent="1">
          <mxGeometry x="210" y="50" width="120" height="60" as="geometry" />
        </mxCell>
        <mxCell id="YBYCJPzU8zMPJ0krrIQY-5" value="" style="edgeStyle=orthogonalEdgeStyle;rounded=0;orthogonalLoop=1;jettySize=auto;html=1;fontFamily=Helvetica;fontSize=12;fontColor=#000000;" edge="1" parent="1" source="YBYCJPzU8zMPJ0krrIQY-6" target="YBYCJPzU8zMPJ0krrIQY-10">
          <mxGeometry relative="1" as="geometry" />
        </mxCell>
        <mxCell id="YBYCJPzU8zMPJ0krrIQY-6" value="Сохранить состояние" style="whiteSpace=wrap;html=1;" vertex="1" parent="1">
          <mxGeometry x="210" y="263" width="120" height="60" as="geometry" />
        </mxCell>
        <mxCell id="YBYCJPzU8zMPJ0krrIQY-7" value="нет" style="edgeStyle=orthogonalEdgeStyle;rounded=0;orthogonalLoop=1;jettySize=auto;html=1;fontFamily=Helvetica;fontSize=12;fontColor=#000000;" edge="1" parent="1" source="YBYCJPzU8zMPJ0krrIQY-9" target="YBYCJPzU8zMPJ0krrIQY-10">
          <mxGeometry x="-0.75" relative="1" as="geometry">
            <mxPoint x="435" y="178" as="targetPoint" />
            <mxPoint as="offset" />
          </mxGeometry>
        </mxCell>
        <mxCell id="YBYCJPzU8zMPJ0krrIQY-8" value="да" style="edgeStyle=orthogonalEdgeStyle;rounded=0;orthogonalLoop=1;jettySize=auto;html=1;fontFamily=Helvetica;fontSize=12;fontColor=#000000;" edge="1" parent="1" source="YBYCJPzU8zMPJ0krrIQY-9" target="YBYCJPzU8zMPJ0krrIQY-6">
          <mxGeometry relative="1" as="geometry" />
        </mxCell>
        <mxCell id="YBYCJPzU8zMPJ0krrIQY-9" value="Инициатор запуска пользователь?" style="rhombus;whiteSpace=wrap;html=1;" vertex="1" parent="1">
          <mxGeometry x="185" y="138" width="170" height="80" as="geometry" />
        </mxCell>
        <mxCell id="YBYCJPzU8zMPJ0krrIQY-10" value="Конец" style="ellipse;whiteSpace=wrap;html=1;" vertex="1" parent="1">
          <mxGeometry x="410" y="263" width="120" height="60" as="geometry" />
        </mxCell>
        <mxCell id="YBYCJPzU8zMPJ0krrIQY-11" value="" style="edgeStyle=orthogonalEdgeStyle;rounded=0;orthogonalLoop=1;jettySize=auto;html=1;fontSize=18;fontColor=#0000FF;" edge="1" parent="1" source="YBYCJPzU8zMPJ0krrIQY-12" target="YBYCJPzU8zMPJ0krrIQY-14">
          <mxGeometry relative="1" as="geometry" />
        </mxCell>
        <mxCell id="YBYCJPzU8zMPJ0krrIQY-12" value="&quot;Стоп&quot;&lt;br&gt;Начало" style="ellipse;whiteSpace=wrap;html=1;" vertex="1" parent="1">
          <mxGeometry x="40" y="370" width="120" height="80" as="geometry" />
        </mxCell>
        <mxCell id="YBYCJPzU8zMPJ0krrIQY-13" value="" style="edgeStyle=orthogonalEdgeStyle;rounded=0;orthogonalLoop=1;jettySize=auto;html=1;fontSize=18;fontColor=#0000FF;" edge="1" parent="1" source="YBYCJPzU8zMPJ0krrIQY-14" target="YBYCJPzU8zMPJ0krrIQY-19">
          <mxGeometry relative="1" as="geometry" />
        </mxCell>
        <mxCell id="YBYCJPzU8zMPJ0krrIQY-14" value="Остановить InfBase" style="whiteSpace=wrap;html=1;" vertex="1" parent="1">
          <mxGeometry x="200" y="380" width="120" height="60" as="geometry" />
        </mxCell>
        <mxCell id="YBYCJPzU8zMPJ0krrIQY-15" value="" style="edgeStyle=orthogonalEdgeStyle;rounded=0;orthogonalLoop=1;jettySize=auto;html=1;fontFamily=Helvetica;fontSize=12;fontColor=#000000;" edge="1" parent="1" source="YBYCJPzU8zMPJ0krrIQY-16" target="YBYCJPzU8zMPJ0krrIQY-20">
          <mxGeometry relative="1" as="geometry" />
        </mxCell>
        <mxCell id="YBYCJPzU8zMPJ0krrIQY-16" value="Сохранить состояние" style="whiteSpace=wrap;html=1;" vertex="1" parent="1">
          <mxGeometry x="200" y="593" width="120" height="60" as="geometry" />
        </mxCell>
        <mxCell id="YBYCJPzU8zMPJ0krrIQY-17" value="нет" style="edgeStyle=orthogonalEdgeStyle;rounded=0;orthogonalLoop=1;jettySize=auto;html=1;fontFamily=Helvetica;fontSize=12;fontColor=#000000;" edge="1" parent="1" source="YBYCJPzU8zMPJ0krrIQY-19" target="YBYCJPzU8zMPJ0krrIQY-20">
          <mxGeometry x="-0.75" relative="1" as="geometry">
            <mxPoint x="425" y="508" as="targetPoint" />
            <mxPoint as="offset" />
          </mxGeometry>
        </mxCell>
        <mxCell id="YBYCJPzU8zMPJ0krrIQY-18" value="да" style="edgeStyle=orthogonalEdgeStyle;rounded=0;orthogonalLoop=1;jettySize=auto;html=1;fontFamily=Helvetica;fontSize=12;fontColor=#000000;" edge="1" parent="1" source="YBYCJPzU8zMPJ0krrIQY-19" target="YBYCJPzU8zMPJ0krrIQY-16">
          <mxGeometry relative="1" as="geometry" />
        </mxCell>
        <mxCell id="YBYCJPzU8zMPJ0krrIQY-19" value="Инициатор запуска пользователь?" style="rhombus;whiteSpace=wrap;html=1;" vertex="1" parent="1">
          <mxGeometry x="175" y="468" width="170" height="80" as="geometry" />
        </mxCell>
        <mxCell id="YBYCJPzU8zMPJ0krrIQY-20" value="Конец" style="ellipse;whiteSpace=wrap;html=1;" vertex="1" parent="1">
          <mxGeometry x="400" y="593" width="120" height="60" as="geometry" />
        </mxCell>
        <mxCell id="YBYCJPzU8zMPJ0krrIQY-21" value="" style="edgeStyle=orthogonalEdgeStyle;rounded=0;orthogonalLoop=1;jettySize=auto;html=1;" edge="1" parent="1" source="YBYCJPzU8zMPJ0krrIQY-22" target="YBYCJPzU8zMPJ0krrIQY-24">
          <mxGeometry relative="1" as="geometry" />
        </mxCell>
        <mxCell id="YBYCJPzU8zMPJ0krrIQY-22" value="None" style="ellipse;whiteSpace=wrap;html=1;aspect=fixed;sketch=0;shadow=0;" vertex="1" parent="1">
          <mxGeometry x="820" y="20" width="80" height="80" as="geometry" />
        </mxCell>
        <mxCell id="YBYCJPzU8zMPJ0krrIQY-23" value="" style="edgeStyle=orthogonalEdgeStyle;rounded=0;orthogonalLoop=1;jettySize=auto;html=1;fontFamily=Helvetica;fontSize=12;fontColor=#000000;" edge="1" parent="1" source="YBYCJPzU8zMPJ0krrIQY-24" target="YBYCJPzU8zMPJ0krrIQY-38">
          <mxGeometry relative="1" as="geometry" />
        </mxCell>
        <mxCell id="YBYCJPzU8zMPJ0krrIQY-24" value="LoadSettingsAsync" style="whiteSpace=wrap;html=1;sketch=0;glass=0;rounded=0;fontColor=#666666;strokeColor=#666666;" vertex="1" parent="1">
          <mxGeometry x="800" y="140" width="120" height="60" as="geometry" />
        </mxCell>
        <mxCell id="YBYCJPzU8zMPJ0krrIQY-25" value="" style="edgeStyle=orthogonalEdgeStyle;rounded=0;orthogonalLoop=1;jettySize=auto;html=1;exitX=0;exitY=0.5;exitDx=0;exitDy=0;" edge="1" parent="1" source="YBYCJPzU8zMPJ0krrIQY-26" target="YBYCJPzU8zMPJ0krrIQY-29">
          <mxGeometry relative="1" as="geometry" />
        </mxCell>
        <mxCell id="YBYCJPzU8zMPJ0krrIQY-26" value="Disabled" style="ellipse;whiteSpace=wrap;html=1;aspect=fixed;fillColor=#f8cecc;strokeColor=#b85450;fontColor=#B85450;" vertex="1" parent="1">
          <mxGeometry x="820" y="380" width="80" height="80" as="geometry" />
        </mxCell>
        <mxCell id="YBYCJPzU8zMPJ0krrIQY-27" value="OnInit" style="ellipse;whiteSpace=wrap;html=1;aspect=fixed;fillColor=#f5f5f5;fontColor=#666666;strokeColor=#666666;" vertex="1" parent="1">
          <mxGeometry x="935" y="130" width="80" height="80" as="geometry" />
        </mxCell>
        <mxCell id="YBYCJPzU8zMPJ0krrIQY-28" value="" style="edgeStyle=orthogonalEdgeStyle;rounded=0;orthogonalLoop=1;jettySize=auto;html=1;entryX=0;entryY=0.5;entryDx=0;entryDy=0;" edge="1" parent="1" source="YBYCJPzU8zMPJ0krrIQY-29" target="YBYCJPzU8zMPJ0krrIQY-32">
          <mxGeometry relative="1" as="geometry">
            <mxPoint x="760" y="660" as="targetPoint" />
          </mxGeometry>
        </mxCell>
        <mxCell id="YBYCJPzU8zMPJ0krrIQY-29" value="RunAsync" style="whiteSpace=wrap;html=1;fontColor=#82B366;strokeColor=#82B366;" vertex="1" parent="1">
          <mxGeometry x="700" y="520" width="120" height="60" as="geometry" />
        </mxCell>
        <mxCell id="YBYCJPzU8zMPJ0krrIQY-30" value="OnStart" style="ellipse;whiteSpace=wrap;html=1;aspect=fixed;fillColor=#fff2cc;strokeColor=#d6b656;fontColor=#D6B656;" vertex="1" parent="1">
          <mxGeometry x="610" y="510" width="80" height="80" as="geometry" />
        </mxCell>
        <mxCell id="YBYCJPzU8zMPJ0krrIQY-31" value="" style="edgeStyle=orthogonalEdgeStyle;rounded=0;orthogonalLoop=1;jettySize=auto;html=1;exitX=1;exitY=0.5;exitDx=0;exitDy=0;" edge="1" parent="1" source="YBYCJPzU8zMPJ0krrIQY-32" target="YBYCJPzU8zMPJ0krrIQY-34">
          <mxGeometry relative="1" as="geometry" />
        </mxCell>
        <mxCell id="YBYCJPzU8zMPJ0krrIQY-32" value="Enabled" style="ellipse;whiteSpace=wrap;html=1;aspect=fixed;fillColor=#d5e8d4;strokeColor=#82b366;fontColor=#82B366;" vertex="1" parent="1">
          <mxGeometry x="820" y="630" width="80" height="80" as="geometry" />
        </mxCell>
        <mxCell id="YBYCJPzU8zMPJ0krrIQY-33" value="" style="edgeStyle=orthogonalEdgeStyle;rounded=0;orthogonalLoop=1;jettySize=auto;html=1;entryX=1;entryY=0.5;entryDx=0;entryDy=0;" edge="1" parent="1" source="YBYCJPzU8zMPJ0krrIQY-34" target="YBYCJPzU8zMPJ0krrIQY-26">
          <mxGeometry relative="1" as="geometry">
            <mxPoint x="960" y="440" as="targetPoint" />
          </mxGeometry>
        </mxCell>
        <mxCell id="YBYCJPzU8zMPJ0krrIQY-34" value="StopAsync" style="whiteSpace=wrap;html=1;strokeColor=#B85450;fontColor=#B85450;" vertex="1" parent="1">
          <mxGeometry x="900" y="520" width="120" height="60" as="geometry" />
        </mxCell>
        <mxCell id="YBYCJPzU8zMPJ0krrIQY-35" value="OnStop" style="ellipse;whiteSpace=wrap;html=1;aspect=fixed;fillColor=#fff2cc;strokeColor=#d6b656;fontColor=#D6B656;" vertex="1" parent="1">
          <mxGeometry x="1030" y="510" width="80" height="80" as="geometry" />
        </mxCell>
        <mxCell id="YBYCJPzU8zMPJ0krrIQY-36" value="да" style="edgeStyle=orthogonalEdgeStyle;rounded=0;orthogonalLoop=1;jettySize=auto;html=1;fontFamily=Helvetica;fontSize=12;fontColor=#000000;" edge="1" parent="1" source="YBYCJPzU8zMPJ0krrIQY-38" target="YBYCJPzU8zMPJ0krrIQY-26">
          <mxGeometry relative="1" as="geometry" />
        </mxCell>
        <mxCell id="YBYCJPzU8zMPJ0krrIQY-37" value="нет" style="edgeStyle=orthogonalEdgeStyle;rounded=0;orthogonalLoop=1;jettySize=auto;html=1;fontFamily=Helvetica;fontSize=12;fontColor=#000000;entryX=0;entryY=0.5;entryDx=0;entryDy=0;exitX=0;exitY=0.5;exitDx=0;exitDy=0;" edge="1" parent="1" source="YBYCJPzU8zMPJ0krrIQY-38" target="YBYCJPzU8zMPJ0krrIQY-22">
          <mxGeometry x="-0.8948" relative="1" as="geometry">
            <mxPoint x="690" y="290" as="targetPoint" />
            <Array as="points">
              <mxPoint x="720" y="290" />
              <mxPoint x="720" y="60" />
            </Array>
            <mxPoint as="offset" />
          </mxGeometry>
        </mxCell>
        <mxCell id="YBYCJPzU8zMPJ0krrIQY-38" value="Успешно?" style="rhombus;whiteSpace=wrap;html=1;strokeColor=#666666;fontColor=#666666;sketch=0;glass=0;rounded=0;" vertex="1" parent="1">
          <mxGeometry x="770" y="250" width="180" height="80" as="geometry" />
        </mxCell>
      </root>
    </mxGraphModel>
  </diagram>
</mxfile>
